<?xml version="1.0" encoding="UTF-8" standalone="no"?>
<!-- Created by diasvg.py -->
<svg width="33.945cm" height="21.400cm" viewBox="4.550 0.900 38.495 22.300"
 xmlns="http://www.w3.org/2000/svg"
 xmlns:xlink="http://www.w3.org/1999/xlink">
<rect x="4.600" y="7.750" width="5.110" height="1.400" fill="#FFFFFF" stroke="none" stroke-width="0"/>
<rect x="4.600" y="7.750" width="5.110" height="1.400" fill="none" stroke="#000000" stroke-width="0.100" />
<text x="7.155" y="8.750"  fill="#000000" text-anchor="middle" font-size="1.00" font-family="sans" font-style="normal" font-weight="700">
notifyables</text>
<rect x="4.600" y="9.150" width="5.110" height="1.800" fill="#FFFFFF" stroke="none" stroke-width="0"/>
<rect x="4.600" y="9.150" width="5.110" height="1.800" fill="none" stroke="#000000" stroke-width="0.100" />
<text x="4.750" y="10.050"  fill="#000000" text-anchor="start" font-size="0.80" font-family="monospace" font-style="normal" font-weight="400">
+message</text>
<text x="4.750" y="10.850"  fill="#000000" text-anchor="start" font-size="0.80" font-family="monospace" font-style="normal" font-weight="400">
+defaults</text>
<rect x="4.600" y="10.950" width="5.110" height="0.400" fill="#FFFFFF" stroke="none" stroke-width="0"/>
<rect x="4.600" y="10.950" width="5.110" height="0.400" fill="none" stroke="#000000" stroke-width="0.100" />
<rect x="12.150" y="14.300" width="5.645" height="1.400" fill="#FFFFFF" stroke="none" stroke-width="0"/>
<rect x="12.150" y="14.300" width="5.645" height="1.400" fill="none" stroke="#000000" stroke-width="0.100" />
<text x="14.972" y="15.300"  fill="#000000" text-anchor="middle" font-size="1.00" font-family="sans" font-style="normal" font-weight="700">
notifications</text>
<rect x="12.150" y="15.700" width="5.645" height="0.400" fill="#FFFFFF" stroke="none" stroke-width="0"/>
<rect x="12.150" y="15.700" width="5.645" height="0.400" fill="none" stroke="#000000" stroke-width="0.100" />
<rect x="12.150" y="16.100" width="5.645" height="0.400" fill="#FFFFFF" stroke="none" stroke-width="0"/>
<rect x="12.150" y="16.100" width="5.645" height="0.400" fill="none" stroke="#000000" stroke-width="0.100" />
<rect x="19.700" y="20.050" width="2.745" height="1.400" fill="#FFFFFF" stroke="none" stroke-width="0"/>
<rect x="19.700" y="20.050" width="2.745" height="1.400" fill="none" stroke="#000000" stroke-width="0.100" />
<text x="21.072" y="21.050"  fill="#000000" text-anchor="middle" font-size="1.00" font-family="sans" font-style="normal" font-weight="700">
users</text>
<rect x="19.700" y="21.450" width="2.745" height="0.400" fill="#FFFFFF" stroke="none" stroke-width="0"/>
<rect x="19.700" y="21.450" width="2.745" height="0.400" fill="none" stroke="#000000" stroke-width="0.100" />
<rect x="19.700" y="21.850" width="2.745" height="0.400" fill="#FFFFFF" stroke="none" stroke-width="0"/>
<rect x="19.700" y="21.850" width="2.745" height="0.400" fill="none" stroke="#000000" stroke-width="0.100" />
<line x1="19.700" y1="20.050" x2="9.879" y2="11.497" stroke="#000000" stroke-width="0.100" />
<polyline fill="none" stroke="#000000" stroke-width="0.100"  points="10.336,11.563 9.794,11.423 10.007,11.940 "/>
<rect x="18.700" y="0.950" width="4.455" height="1.400" fill="#FFFFFF" stroke="none" stroke-width="0"/>
<rect x="18.700" y="0.950" width="4.455" height="1.400" fill="none" stroke="#000000" stroke-width="0.100" />
<text x="20.928" y="1.950"  fill="#000000" text-anchor="middle" font-size="1.00" font-family="sans" font-style="normal" font-weight="700">
programs</text>
<rect x="18.700" y="2.350" width="4.455" height="0.400" fill="#FFFFFF" stroke="none" stroke-width="0"/>
<rect x="18.700" y="2.350" width="4.455" height="0.400" fill="none" stroke="#000000" stroke-width="0.100" />
<rect x="18.700" y="2.750" width="4.455" height="0.400" fill="#FFFFFF" stroke="none" stroke-width="0"/>
<rect x="18.700" y="2.750" width="4.455" height="0.400" fill="none" stroke="#000000" stroke-width="0.100" />
<line x1="18.700" y1="3.150" x2="9.903" y2="8.336" stroke="#000000" stroke-width="0.100" />
<polyline fill="none" stroke="#000000" stroke-width="0.100"  points="10.110,7.924 9.806,8.393 10.364,8.355 "/>
<rect x="27.200" y="6.950" width="4.157" height="1.400" fill="#FFFFFF" stroke="none" stroke-width="0"/>
<rect x="27.200" y="6.950" width="4.157" height="1.400" fill="none" stroke="#000000" stroke-width="0.100" />
<text x="29.279" y="7.950"  fill="#000000" text-anchor="middle" font-size="1.00" font-family="sans" font-style="normal" font-weight="700">
episodes</text>
<rect x="27.200" y="8.350" width="4.157" height="0.400" fill="#FFFFFF" stroke="none" stroke-width="0"/>
<rect x="27.200" y="8.350" width="4.157" height="0.400" fill="none" stroke="#000000" stroke-width="0.100" />
<rect x="27.200" y="8.750" width="4.157" height="0.400" fill="#FFFFFF" stroke="none" stroke-width="0"/>
<rect x="27.200" y="8.750" width="4.157" height="0.400" fill="none" stroke="#000000" stroke-width="0.100" />
<rect x="32.200" y="14.350" width="6.245" height="1.400" fill="#FFFFFF" stroke="none" stroke-width="0"/>
<rect x="32.200" y="14.350" width="6.245" height="1.400" fill="none" stroke="#000000" stroke-width="0.100" />
<text x="35.323" y="15.350"  fill="#000000" text-anchor="middle" font-size="1.00" font-family="sans" font-style="normal" font-weight="700">
transmissions</text>
<rect x="32.200" y="15.750" width="6.245" height="0.400" fill="#FFFFFF" stroke="none" stroke-width="0"/>
<rect x="32.200" y="15.750" width="6.245" height="0.400" fill="none" stroke="#000000" stroke-width="0.100" />
<rect x="32.200" y="16.150" width="6.245" height="0.400" fill="#FFFFFF" stroke="none" stroke-width="0"/>
<rect x="32.200" y="16.150" width="6.245" height="0.400" fill="none" stroke="#000000" stroke-width="0.100" />
<line x1="23.155" y1="3.150" x2="29.089" y2="6.832" stroke="#000000" stroke-width="0.100" />
<polyline fill="none" stroke="#000000" stroke-width="0.100"  points="28.627,6.840 29.184,6.891 28.891,6.415 "/>
<line x1="29.279" y1="9.150" x2="35.153" y2="14.204" stroke="#000000" stroke-width="0.100" />
<polyline fill="none" stroke="#000000" stroke-width="0.100"  points="34.696,14.140 35.238,14.277 35.022,13.761 "/>
</svg>